# xmcd
#
# Track frame offsets:
#	150
#	14792
#	28775
#
# Disc length: 608 seconds
#
# Revision: 0
# Processed by: cddbd v1.5.2PL0 Copyright (c) Steve Scherf et al.
# Submitted via: audiograbber 1.83.01
#
DISCID=21025e03
DTITLE=Jussi Kiiveri - Tuuliajolla [CDS)
DYEAR=1996
DGENRE=Pop
TTITLE0=Tuuliajolla
TTITLE1=Löysin Kadonneen Tunteen
TTITLE2=Lapsuusmuistoja
EXTD=TR.
EXTT0=
EXTT1=
EXTT2=
PLAYORDER=
